<?xml version="1.0" encoding="UTF-8" standalone="no"?><!DOCTYPE svg PUBLIC "-//W3C//DTD SVG 1.1//EN" "http://www.w3.org/Graphics/SVG/1.1/DTD/svg11.dtd"><svg width="100%" height="100%" viewBox="0 0 128 128" version="1.1" xmlns="http://www.w3.org/2000/svg" xmlns:xlink="http://www.w3.org/1999/xlink" xml:space="preserve" xmlns:serif="http://www.serif.com/" style="fill-rule:evenodd;clip-rule:evenodd;stroke-linecap:round;stroke-linejoin:round;stroke-miterlimit:1.5;"><rect x="-1.829" y="-1.688" width="130.251" height="131.601" style="fill:#4a4a4a;"/><text x="26.603px" y="36.853px" style="font-family:'Corbel-Bold', 'Corbel', sans-serif;font-weight:700;font-size:12px;fill:#fff;">NO EVIDENCE</text><g><rect x="19.833" y="68.642" width="26.725" height="25.881" style="fill:none;stroke:#fff;stroke-width:2px;"/><path d="M38.096,84.477c0,0 3.297,-2.819 4.726,-2.342c1.428,0.476 3.318,5.162 3.318,5.162l-6.589,-0.012" style="fill:#fff;"/><path d="M39.032,87.345l-19.896,0.157c0,0 4.9,-10.143 6.492,-10.794c1.592,-0.652 4.266,6.839 4.266,6.839c0,0 2.52,-2.866 3.71,-2.736c1.19,0.131 3.964,3.558 3.964,3.558" style="fill:#fff;"/><circle cx="41.199" cy="74.098" r="2.305" style="fill:#fff;"/><rect x="71.596" y="68.642" width="38.259" height="25.881" style="fill:none;stroke:#fff;stroke-width:2px;"/><path d="M90.976,75.393c4.192,0 7.595,2.963 7.595,6.611c0,3.649 -3.403,6.611 -7.595,6.611c-4.192,0 -7.596,-2.962 -7.596,-6.611c0,-3.648 3.404,-6.611 7.596,-6.611Zm3.476,6.449l-5.273,2.706l0.114,-5.623l5.159,2.917Z" style="fill:#fff;"/></g></svg>